HIERARCHY
ROOT Hips
{
	OFFSET 0.00000 0.00000 0.00000
	CHANNELS 6 Xposition Yposition Zposition Zrotation Yrotation Xrotation 
	JOINT LHipJoint
	{
		OFFSET 0 0 0
		CHANNELS 3 Zrotation Yrotation Xrotation
		JOINT LeftUpLeg
		{
			OFFSET 1.24777 -1.64261 0.71711
			CHANNELS 3 Zrotation Yrotation Xrotation
			JOINT LeftLeg
			{
				OFFSET 2.49329 -6.85026 0.00000
				CHANNELS 3 Zrotation Yrotation Xrotation
				JOINT LeftFoot
				{
					OFFSET 2.36770 -6.50520 0.00000
					CHANNELS 3 Zrotation Yrotation Xrotation
					JOINT LeftToeBase
					{
						OFFSET 0.14820 -0.40718 2.21395
						CHANNELS 3 Zrotation Yrotation Xrotation
						End Site
						{
							OFFSET 0.00000 -0.00000 1.13491
						}
					}
				}
			}
		}
	}
	JOINT RHipJoint
	{
		OFFSET 0 0 0
		CHANNELS 3 Zrotation Yrotation Xrotation
		JOINT RightUpLeg
		{
			OFFSET -1.18320 -1.64261 0.71711
			CHANNELS 3 Zrotation Yrotation Xrotation
			JOINT RightLeg
			{
				OFFSET -2.46559 -6.77417 0.00000
				CHANNELS 3 Zrotation Yrotation Xrotation
				JOINT RightFoot
				{
					OFFSET -2.38450 -6.55136 0.00000
					CHANNELS 3 Zrotation Yrotation Xrotation
					JOINT RightToeBase
					{
						OFFSET -0.17454 -0.47954 2.02925
						CHANNELS 3 Zrotation Yrotation Xrotation
						End Site
						{
							OFFSET -0.00000 -0.00000 1.05076
						}
					}
				}
			}
		}
	}
	JOINT LowerBack
	{
		OFFSET 0 0 0
		CHANNELS 3 Zrotation Yrotation Xrotation
		JOINT Spine
		{
			OFFSET -0.02305 1.98660 0.00319
			CHANNELS 3 Zrotation Yrotation Xrotation
			JOINT Spine1
			{
				OFFSET -0.00718 1.99033 -0.00533
				CHANNELS 3 Zrotation Yrotation Xrotation
				JOINT Neck
				{
					OFFSET 0 0 0
					CHANNELS 3 Zrotation Yrotation Xrotation
					JOINT Neck1
					{
						OFFSET 0.00095 1.61015 0.10698
						CHANNELS 3 Zrotation Yrotation Xrotation
						JOINT Head
						{
							OFFSET -0.01060 1.59924 0.01317
							CHANNELS 3 Zrotation Yrotation Xrotation
							End Site
							{
								OFFSET -0.00458 1.63304 -0.00592
							}
						}
					}
				}
				JOINT LeftShoulder
				{
					OFFSET 0 0 0
					CHANNELS 3 Zrotation Yrotation Xrotation
					JOINT LeftArm
					{
						OFFSET 3.05381 1.47088 -0.01697
						CHANNELS 3 Zrotation Yrotation Xrotation
						JOINT LeftForeArm
						{
							OFFSET 4.25106 -0.00000 0.00000
							CHANNELS 3 Zrotation Yrotation Xrotation
							JOINT LeftHand
							{
								OFFSET 3.27592 -0.00000 0.00000
								CHANNELS 3 Zrotation Yrotation Xrotation
								JOINT LeftFingerBase
								{
									OFFSET 0 0 0
									CHANNELS 3 Zrotation Yrotation Xrotation
									JOINT LeftHandIndex1
									{
										OFFSET 0.65781 -0.00000 0.00000
										CHANNELS 3 Zrotation Yrotation Xrotation
										End Site
										{
											OFFSET 0.53034 -0.00000 0.00000
										}
									}
								}
								JOINT LThumb
								{
									OFFSET 0 0 0
									CHANNELS 3 Zrotation Yrotation Xrotation
									End Site
									{
										OFFSET 0.53844 -0.00000 0.53844
									}
								}
							}
						}
					}
				}
				JOINT RightShoulder
				{
					OFFSET 0 0 0
					CHANNELS 3 Zrotation Yrotation Xrotation
					JOINT RightArm
					{
						OFFSET -2.83695 1.31619 -0.22674
						CHANNELS 3 Zrotation Yrotation Xrotation
						JOINT RightForeArm
						{
							OFFSET -4.46073 -0.00000 0.00000
							CHANNELS 3 Zrotation Yrotation Xrotation
							JOINT RightHand
							{
								OFFSET -3.44416 -0.00000 0.00000
								CHANNELS 3 Zrotation Yrotation Xrotation
								JOINT RightFingerBase
								{
									OFFSET 0 0 0
									CHANNELS 3 Zrotation Yrotation Xrotation
									JOINT RightHandIndex1
									{
										OFFSET -0.61651 -0.00000 0.00000
										CHANNELS 3 Zrotation Yrotation Xrotation
										End Site
										{
											OFFSET -0.49705 -0.00000 0.00000
										}
									}
								}
								JOINT RThumb
								{
									OFFSET 0 0 0
									CHANNELS 3 Zrotation Yrotation Xrotation
									End Site
									{
										OFFSET -0.50464 -0.00000 0.50464
									}
								}
							}
						}
					}
				}
			}
		}
	}
}
MOTION
Frames: 11
Frame Time: .0083333
8.2023 13.9269 -3.5504 -183.0960 47.3457 -180.7240 0.0000 0.0000 0.0000 -13.8735 -16.3824 -30.6129 19.8403 19.9994 89.5329 3.3691 -21.4471 -34.3620 0.1332 -2.3523 -6.4804 0.0000 0.0000 0.0000 -10.4019 6.9958 -49.1481 -11.0543 -17.9616 62.9579 -0.2964 5.1662 -9.7942 -4.3159 12.5693 -37.7768 1.5590 1.3016 13.3533 7.2677 2.9185 7.1082 6.3797 1.7542 -0.3014 -6.1500 -16.1016 -2.2688 8.7449 -21.8712 9.3473 2.2616 -10.5494 4.8242 0.0000 -0.0000 0.0000 -91.5155 13.8952 48.5887 37.7122 -46.6545 -16.7560 -0.0000 0.0000 -30.9046 25.1115 -2.4837 -1.1635 -7.1250 0.0000 -0.0000 -1.1358 27.2367 0.4901 0.0000 -0.0000 0.0000 93.2028 33.8817 49.3619 -154.1632 37.0471 -111.2108 0.0000 -0.0000 -46.7321 -33.5266 -20.9871 13.3493 7.1250 -0.0000 -0.0000 -5.2832 -54.6126 1.2503
8.2453 13.9093 -3.5215 -182.9880 47.0283 -180.6740 0.0000 0.0000 0.0000 -13.3845 -16.4511 -30.6566 19.8820 19.9997 89.6549 3.2963 -22.4201 -34.2516 0.1095 -2.1340 -5.8762 0.0000 0.0000 0.0000 -10.2276 6.8741 -49.2926 -11.2257 -18.0438 63.5124 -0.3115 4.9375 -9.9977 -4.2870 12.5328 -37.6438 1.6668 1.1265 13.2908 7.1791 2.6910 7.1029 6.2564 1.6425 -0.2426 -6.0381 -15.9729 -2.1318 8.8020 -21.6963 8.9729 2.3083 -10.4782 4.6677 -0.0000 -0.0000 0.0000 -91.4602 14.2032 47.9953 37.2138 -46.3297 -16.3945 -0.0000 0.0000 -31.3195 25.0284 -2.4126 -1.1260 -7.1250 0.0000 -0.0000 -1.1993 27.3169 0.5153 -0.0000 -0.0000 0.0000 92.9601 34.0836 49.9514 -153.8258 37.3803 -111.0068 0.0000 -0.0000 -46.1588 -32.9602 -20.7079 12.9138 7.1250 -0.0000 -0.0000 -4.6987 -54.1725 1.0611
8.2831 13.9030 -3.4951 -182.9110 46.7585 -180.6480 0.0000 0.0000 0.0000 -12.9612 -16.5189 -30.5945 19.8547 19.9995 89.5753 3.2187 -23.4261 -34.1526 0.0843 -1.8728 -5.1541 0.0000 0.0000 0.0000 -10.0697 6.8407 -49.3523 -11.3469 -18.1007 63.9030 -0.3199 4.6525 -10.0975 -4.2633 12.5027 -37.5345 1.7236 0.9474 13.2093 7.0719 2.4468 7.0802 6.1440 1.5197 -0.1927 -5.9369 -15.8516 -2.0119 8.8284 -21.5300 8.6559 2.3427 -10.4100 4.5304 -0.0000 0.0000 0.0000 -91.3873 14.4718 47.5085 36.7135 -45.9976 -16.0336 -0.0000 0.0000 -31.5932 24.9120 -2.3711 -1.1008 -7.1250 0.0000 -0.0000 -1.2887 27.3651 0.5522 -0.0000 0.0000 0.0000 92.6262 34.4745 50.3840 -153.5484 37.6512 -110.8379 0.0000 -0.0000 -45.6418 -32.3919 -20.4086 12.4747 7.1250 -0.0000 -0.0000 -4.1236 -53.7122 0.8845
8.3156 13.9081 -3.4713 -182.8730 46.5460 -180.6450 0.0000 0.0000 0.0000 -12.6116 -16.5619 -30.4471 19.7631 19.9987 89.3072 3.1312 -24.4436 -34.0371 0.0586 -1.5624 -4.2976 0.0000 0.0000 0.0000 -9.9313 6.9027 -49.3276 -11.4142 -18.1319 64.1194 -0.3221 4.3081 -10.1074 -4.2432 12.4772 -37.4418 1.7214 0.7720 13.1080 6.9464 2.1948 7.0375 6.0460 1.3897 -0.1550 -5.8503 -15.7397 -1.9112 8.8287 -21.3761 8.3996 2.3659 -10.3463 4.4148 0.0000 -0.0000 0.0000 -91.3044 14.7039 47.1046 36.2223 -45.6654 -15.6813 -0.0000 0.0000 -31.6924 24.7865 -2.3667 -1.0924 -7.1250 0.0000 -0.0000 -1.3851 27.3725 0.5933 0.0000 -0.0000 0.0000 92.2240 35.0272 50.6545 -153.3428 37.8503 -110.7120 0.0000 -0.0000 -45.1860 -31.8358 -20.1016 12.0458 7.1250 -0.0000 -0.0000 -3.5711 -53.2505 0.7254
8.3426 13.9245 -3.4497 -182.8680 46.3973 -180.6530 0.0000 0.0000 0.0000 -12.3348 -16.5513 -30.2457 19.6145 19.9964 88.8727 3.0352 -25.4056 -33.8937 0.0364 -1.2317 -3.3865 0.0000 0.0000 0.0000 -9.8088 7.0663 -49.2224 -11.4243 -18.1365 64.1519 -0.3184 3.9045 -10.0341 -4.2257 12.4549 -37.3608 1.6623 0.6046 12.9860 6.8053 1.9414 6.9725 5.9633 1.2558 -0.1318 -5.7811 -15.6388 -1.8313 8.8093 -21.2370 8.2024 2.3798 -10.2881 4.3217 0.0000 0.0000 0.0000 -91.2243 14.9028 46.7559 35.7509 -45.3409 -15.3450 -0.0000 0.0000 -31.5909 24.6706 -2.4033 -1.1035 -7.1250 0.0000 -0.0000 -1.4740 27.3345 0.6328 0.0000 0.0000 0.0000 91.7727 35.7148 50.7642 -153.2103 37.9779 -110.6306 0.0000 -0.0000 -44.7914 -31.3004 -19.7974 11.6364 7.1250 -0.0000 -0.0000 -3.0478 -52.7996 0.5854
8.3641 13.9522 -3.4301 -182.8850 46.3167 -180.6560 0.0000 0.0000 0.0000 -12.1278 -16.4581 -30.0209 19.4176 19.9919 88.2971 2.9401 -26.2204 -33.7301 0.0208 -0.9319 -2.5615 0.0000 0.0000 0.0000 -9.6949 7.3337 -49.0408 -11.3745 -18.1135 63.9918 -0.3088 3.4468 -9.8774 -4.2100 12.4347 -37.2876 1.5543 0.4466 12.8427 6.6526 1.6900 6.8843 5.8950 1.1201 -0.1230 -5.7291 -15.5487 -1.7722 8.7756 -21.1132 8.0571 2.3864 -10.2357 4.2494 0.0000 0.0000 0.0000 -91.1594 15.0708 46.4314 35.3088 -45.0314 -15.0314 -0.0000 0.0000 -31.2808 24.5794 -2.4818 -1.1347 -7.1250 0.0000 -0.0000 -1.5442 27.2501 0.6660 0.0000 0.0000 0.0000 91.2860 36.5110 50.7200 -153.1459 38.0397 -110.5909 0.0000 -0.0000 -44.4570 -30.7935 -19.5053 11.2543 7.1250 -0.0000 -0.0000 -2.5596 -52.3717 0.4647
8.3796 13.9911 -3.4126 -182.9070 46.3076 -180.6400 0.0000 0.0000 0.0000 -11.9854 -16.2588 -29.7978 19.1804 19.9839 87.6031 2.8613 -26.7926 -33.5735 0.0126 -0.7257 -1.9943 0.0000 0.0000 0.0000 -9.5790 7.7012 -48.7873 -11.2626 -18.0612 63.6315 -0.2929 2.9452 -9.6314 -4.1948 12.4152 -37.2169 1.4107 0.2972 12.6784 6.4932 1.4421 6.7738 5.8386 0.9839 -0.1277 -5.6919 -15.4690 -1.7328 8.7319 -21.0038 7.9541 2.3871 -10.1888 4.1948 -0.0000 0.0000 0.0000 -91.1207 15.2097 46.1024 34.9032 -44.7429 -14.7452 -0.0000 0.0000 -30.7790 24.5225 -2.5992 -1.1852 -7.1250 0.0000 -0.0000 -1.5878 27.1224 0.6896 -0.0000 0.0000 0.0000 90.7729 37.3921 50.5339 -153.1386 38.0467 -110.5864 0.0000 -0.0000 -44.1814 -30.3240 -19.2337 10.9063 7.1250 -0.0000 -0.0000 -2.1127 -51.9759 0.3630
8.3889 14.0412 -3.3972 -182.9170 46.3746 -180.5900 0.0000 0.0000 0.0000 -11.8995 -15.9398 -29.5900 18.9083 19.9714 86.8067 2.8091 -27.0725 -33.4397 0.0100 -0.6446 -1.7715 0.0000 0.0000 0.0000 -9.4480 8.1602 -48.4655 -11.0871 -17.9775 63.0643 -0.2706 2.4151 -9.2861 -4.1784 12.3941 -37.1407 1.2465 0.1546 12.4962 6.3318 1.1983 6.6431 5.7905 0.8483 -0.1445 -5.6641 -15.3984 -1.7108 8.6794 -20.9072 7.8841 2.3824 -10.1471 4.1542 0.0000 0.0000 0.0000 -91.1173 15.3204 45.7480 34.5393 -44.4804 -14.4896 -0.0000 0.0000 -30.1319 24.5069 -2.7469 -1.2515 -7.1250 0.0000 -0.0000 -1.5998 26.9606 0.7009 0.0000 0.0000 0.0000 90.2375 38.3362 50.2218 -153.1749 38.0119 -110.6088 0.0000 -0.0000 -43.9636 -29.9037 -18.9915 10.6007 7.1250 -0.0000 -0.0000 -1.7168 -51.6254 0.2802
8.3916 14.1025 -3.3843 -182.9050 46.5255 -180.5010 0.0000 0.0000 0.0000 -11.8668 -15.4953 -29.3973 18.6032 19.9532 85.9130 2.7921 -27.0325 -33.3504 0.0122 -0.7137 -1.9613 0.0000 0.0000 0.0000 -9.2919 8.6967 -48.0799 -10.8471 -17.8595 62.2841 -0.2421 1.8790 -8.8301 -4.1588 12.3688 -37.0493 1.0732 0.0171 12.3000 6.1721 0.9589 6.4957 5.7480 0.7141 -0.1715 -5.6387 -15.3354 -1.7035 8.6160 -20.8209 7.8391 2.3719 -10.1096 4.1236 -0.0000 0.0000 0.0000 -91.1539 15.4038 45.3566 34.2211 -44.2479 -14.2671 -0.0000 0.0000 -29.4104 24.5392 -2.9157 -1.3304 -7.1250 0.0000 -0.0000 -1.5755 26.7745 0.6971 -0.0000 0.0000 0.0000 89.6805 39.3228 49.8030 -153.2376 37.9516 -110.6474 0.0000 -0.0000 -43.8043 -29.5463 -18.7887 10.3464 7.1250 -0.0000 -0.0000 -1.3827 -51.3334 0.2157
8.3872 14.1750 -3.3741 -182.8650 46.7702 -180.3700 0.0000 0.0000 0.0000 -11.8827 -14.9312 -29.2103 18.2636 19.9276 84.9171 2.8069 -26.7044 -33.3017 0.0201 -0.9146 -2.5138 0.0000 0.0000 0.0000 -9.1029 9.2925 -47.6366 -10.5423 -17.7037 61.2861 -0.2084 1.3645 -8.2526 -4.1337 12.3363 -36.9322 0.8997 -0.1160 12.0948 6.0165 0.7249 6.3347 5.7087 0.5823 -0.2082 -5.6083 -15.2778 -1.7081 8.5371 -20.7418 7.8144 2.3540 -10.0750 4.0994 0.0000 -0.0000 0.0000 -91.2320 15.4609 44.9309 33.9501 -44.0478 -14.0784 -0.0000 0.0000 -28.7002 24.6250 -3.0973 -1.4187 -7.1250 0.0000 -0.0000 -1.5107 26.5727 0.6755 0.0000 -0.0000 0.0000 89.1025 40.3329 49.3002 -153.3124 37.8797 -110.6933 0.0000 -0.0000 -43.7050 -29.2650 -18.6344 10.1515 7.1250 -0.0000 -0.0000 -1.1207 -51.1100 0.1687
8.3755 14.2585 -3.3670 -182.7940 47.1214 -180.1970 0.0000 0.0000 0.0000 -11.9422 -14.2618 -29.0119 17.8851 19.8924 83.8058 2.8412 -26.1654 -33.2712 0.0343 -1.1955 -3.2870 0.0000 0.0000 0.0000 -8.8762 9.9259 -47.1437 -10.1735 -17.5063 60.0667 -0.1711 0.9038 -7.5453 -4.1013 12.2940 -36.7803 0.7305 -0.2441 11.8854 5.8664 0.4982 6.1628 5.6712 0.4542 -0.2542 -5.5660 -15.2238 -1.7224 8.4373 -20.6669 7.8080 2.3270 -10.0420 4.0793 0.0000 0.0000 0.0000 -91.3450 15.4938 44.4839 33.7275 -43.8818 -13.9238 -0.0000 0.0000 -28.0851 24.7669 -3.2865 -1.5151 -7.1250 0.0000 -0.0000 -1.4036 26.3608 0.6346 0.0000 0.0000 0.0000 88.5044 41.3496 48.7383 -153.3837 37.8108 -110.7371 0.0000 -0.0000 -43.6655 -29.0697 -18.5351 10.0215 7.1250 -0.0000 -0.0000 -0.9383 -50.9643 0.1379
